<svg xmlns="http://www.w3.org/2000/svg" viewBox="0 0 24 24" width="24" height="24" color="#ffffff" fill="none">
    <defs />
    <path fill="#141B34" d="M12,1.25 C12.676,1.25 13.162,1.734 13.42,2.026 C13.569,2.195 13.702,2.373 13.809,2.517 L13.849,2.572 C13.943,2.699 14.006,2.784 14.059,2.845 C14.206,3.016 14.296,3.098 14.377,3.146 C14.441,3.184 14.53,3.22 14.701,3.222 C14.877,3.225 15.068,3.169 15.414,3.067 L15.453,3.055 C15.764,2.964 16.239,2.825 16.742,2.9 C16.961,2.933 17.248,3.012 17.47,3.236 C17.733,3.5 17.776,3.83 17.737,4.079 C17.704,4.294 17.61,4.474 17.549,4.58 C17.49,4.681 17.422,4.779 17.377,4.845 L17.361,4.868 L16.428,6.225 L16.371,6.308 C16.247,6.491 16.125,6.669 15.99,6.834 C16.35,7.059 16.621,7.323 16.963,7.655 L16.99,7.681 C18.856,9.496 20.995,12.575 21.683,16.712 C21.974,18.462 21.302,19.997 20.147,21.069 C19.003,22.131 17.382,22.75 15.692,22.75 L8.309,22.75 C6.618,22.75 4.997,22.131 3.854,21.069 C2.699,19.997 2.027,18.462 2.318,16.712 C3.005,12.575 5.144,9.496 7.01,7.681 L7.037,7.655 C7.379,7.323 7.65,7.059 8.01,6.834 C7.875,6.669 7.753,6.491 7.628,6.308 L7.571,6.225 L6.638,4.868 L6.623,4.845 C6.577,4.779 6.509,4.681 6.451,4.58 C6.389,4.474 6.296,4.294 6.262,4.079 C6.224,3.83 6.266,3.5 6.529,3.236 C6.752,3.012 7.038,2.933 7.257,2.9 C7.76,2.825 8.235,2.964 8.546,3.055 L8.585,3.067 C8.932,3.169 9.122,3.225 9.298,3.222 C9.47,3.22 9.559,3.184 9.623,3.146 C9.703,3.098 9.794,3.016 9.941,2.845 C9.994,2.784 10.056,2.699 10.15,2.572 L10.191,2.517 C10.297,2.373 10.43,2.195 10.58,2.026 C10.837,1.734 11.323,1.25 12,1.25 Z M10.922,7.75 C9.907,7.75 9.572,7.76 9.162,7.927 C8.74,8.099 8.572,8.255 8.056,8.757 C6.37,10.397 4.422,13.199 3.797,16.958 C3.6,18.147 4.039,19.194 4.874,19.97 C5.721,20.756 6.97,21.25 8.309,21.25 L15.692,21.25 C17.03,21.25 18.279,20.756 19.126,19.97 C19.962,19.194 20.401,18.147 20.203,16.958 C19.578,13.199 17.631,10.397 15.944,8.757 C15.428,8.255 15.261,8.099 14.838,7.927 C14.428,7.76 14.093,7.75 13.078,7.75 Z M12,9.25 C12.414,9.25 12.75,9.586 12.75,10 L12.75,10.75 L13.875,10.75 C14.91,10.75 15.75,11.59 15.75,12.625 L15.75,13.375 C15.75,13.797 15.611,14.187 15.375,14.5 C15.611,14.813 15.75,15.203 15.75,15.625 L15.75,16.375 C15.75,17.41 14.91,18.25 13.875,18.25 L12.75,18.25 L12.75,19 C12.75,19.414 12.414,19.75 12,19.75 C11.586,19.75 11.25,19.414 11.25,19 L11.25,18.25 L9,18.25 C8.586,18.25 8.25,17.914 8.25,17.5 C8.25,17.086 8.586,16.75 9,16.75 L9.375,16.75 L9.375,12.25 L9,12.25 C8.586,12.25 8.25,11.914 8.25,11.5 C8.25,11.086 8.586,10.75 9,10.75 L11.25,10.75 L11.25,10 C11.25,9.586 11.586,9.25 12,9.25 Z M11.076,3.826 C10.904,4.025 10.686,4.257 10.393,4.433 C10.082,4.619 9.73,4.716 9.319,4.722 C8.907,4.728 8.502,4.608 8.222,4.524 L8.807,5.376 C9.238,6.003 9.314,6.073 9.48,6.138 C9.584,6.179 9.735,6.213 10.023,6.231 C10.316,6.25 10.692,6.25 11.241,6.25 L12.758,6.25 C13.307,6.25 13.684,6.25 13.976,6.231 C14.264,6.213 14.415,6.179 14.52,6.138 C14.685,6.073 14.761,6.003 15.192,5.376 L15.778,4.524 C15.497,4.608 15.092,4.728 14.681,4.722 C14.269,4.716 13.917,4.619 13.607,4.433 C13.313,4.257 13.095,4.025 12.923,3.826 C12.829,3.717 12.727,3.578 12.64,3.46 L12.602,3.408 C12.497,3.266 12.397,3.134 12.295,3.018 C12.125,2.825 12.029,2.771 12,2.756 C11.97,2.771 11.874,2.825 11.705,3.018 C11.602,3.134 11.503,3.266 11.397,3.408 L11.359,3.46 C11.272,3.578 11.17,3.717 11.076,3.826 Z M10.875,12.25 L10.875,13.75 L13.875,13.75 C14.082,13.75 14.25,13.582 14.25,13.375 L14.25,12.625 C14.25,12.418 14.082,12.25 13.875,12.25 Z M13.875,15.25 L10.875,15.25 L10.875,16.75 L13.875,16.75 C14.082,16.75 14.25,16.582 14.25,16.375 L14.25,15.625 C14.25,15.418 14.082,15.25 13.875,15.25 Z" />
</svg>