<svg xmlns="http://www.w3.org/2000/svg" viewBox="0 0 24 24" width="24" height="24" color="#dee7e8" fill="none">
    <path fill-rule="evenodd" clip-rule="evenodd" d="M2.25 6.75C2.25 9.23 4.27 11.25 6.75 11.25C9.23 11.25 11.25 9.23 11.25 6.75C11.25 4.27 9.23 2.25 6.75 2.25C4.27 2.25 2.25 4.27 2.25 6.75ZM3.75 6.75C3.75 5.1 5.1 3.75 6.75 3.75C8.4 3.75 9.75 5.1 9.75 6.75C9.75 8.4 8.4 9.75 6.75 9.75C5.1 9.75 3.75 8.4 3.75 6.75ZM12.75 6.75C12.75 9.23 14.77 11.25 17.25 11.25C19.73 11.25 21.75 9.23 21.75 6.75C21.75 4.27 19.73 2.25 17.25 2.25C14.77 2.25 12.75 4.27 12.75 6.75ZM14.25 6.75C14.25 5.1 15.6 3.75 17.25 3.75C18.9 3.75 20.25 5.1 20.25 6.75C20.25 8.4 18.9 9.75 17.25 9.75C15.6 9.75 14.25 8.4 14.25 6.75ZM17.25 21.75C14.77 21.75 12.75 19.73 12.75 17.25C12.75 14.77 14.77 12.75 17.25 12.75C19.73 12.75 21.75 14.77 21.75 17.25C21.75 19.73 19.73 21.75 17.25 21.75ZM17.25 14.25C15.6 14.25 14.25 15.6 14.25 17.25C14.25 18.9 15.6 20.25 17.25 20.25C18.9 20.25 20.25 18.9 20.25 17.25C20.25 15.6 18.9 14.25 17.25 14.25ZM2.25 17.25C2.25 19.73 4.27 21.75 6.75 21.75C9.23 21.75 11.25 19.73 11.25 17.25C11.25 14.77 9.23 12.75 6.75 12.75C4.27 12.75 2.25 14.77 2.25 17.25ZM3.75 17.25C3.75 15.6 5.1 14.25 6.75 14.25C8.4 14.25 9.75 15.6 9.75 17.25C9.75 18.9 8.4 20.25 6.75 20.25C5.1 20.25 3.75 18.9 3.75 17.25Z" fill="#ffffff" />
</svg>