<svg xmlns="http://www.w3.org/2000/svg" viewBox="0 0 24 24" width="24" height="24" color="#ffffff" fill="none">
    <defs />
    <path fill="#141B34" d="M6.246,7 C6.246,3.829 8.824,1.25 11.993,1.25 C15.162,1.25 17.74,3.829 17.74,7 C17.74,10.171 15.162,12.75 11.993,12.75 C8.824,12.75 6.246,10.171 6.246,7 Z M11.847,22.732 C11.821,22.727 11.796,22.72 11.771,22.713 C10.965,22.482 10.236,22.265 9.591,22.072 L9.563,22.064 C7.93,21.577 6.636,21.191 5.245,20.934 C5.119,20.912 4.984,20.89 4.849,20.869 L4.844,20.868 C4.011,20.735 3.067,20.583 2.29,19.995 C1.574,19.459 1.368,18.748 1.261,18.123 C1.254,18.081 1.25,18.039 1.25,17.996 L1.25,7.886 C1.25,7.197 1.271,6.524 1.523,5.867 C2.078,4.411 3.287,4.225 4.51,4.246 C4.924,4.252 5.255,4.593 5.248,5.008 C5.242,5.418 4.907,5.746 4.498,5.746 L4.486,5.746 C3.244,5.725 3.088,5.971 2.923,6.403 C2.762,6.822 2.749,7.322 2.749,7.886 L2.749,17.93 C2.845,18.451 2.98,18.638 3.191,18.796 C3.673,19.161 4.353,19.27 5.076,19.387 L5.086,19.388 L5.095,19.39 C5.234,19.412 5.373,19.435 5.51,19.458 C6.986,19.73 8.312,20.126 9.985,20.625 L10.02,20.635 L10.043,20.642 C10.416,20.753 10.817,20.873 11.244,20.998 L11.244,14.997 C11.244,14.583 11.58,14.247 11.994,14.247 C12.408,14.247 12.744,14.583 12.744,14.997 L12.744,20.981 C14.937,20.309 16.592,19.835 18.184,19.54 C18.266,19.525 18.349,19.511 18.432,19.496 C18.483,19.487 18.534,19.478 18.585,19.469 C19.976,19.228 20.973,19 21.14,18.261 C21.211,17.948 21.243,17.537 21.236,17.006 L21.236,9.267 C21.236,9.078 21.239,8.882 21.243,8.682 C21.268,7.248 21.232,6.127 20.533,5.811 C20.339,5.726 20.024,5.704 19.553,5.745 C19.141,5.779 18.777,5.475 18.741,5.063 C18.705,4.65 19.011,4.287 19.423,4.251 C20.164,4.187 20.695,4.246 21.142,4.441 C22.805,5.192 22.769,7.225 22.742,8.709 C22.741,8.75 22.741,8.79 22.74,8.83 C22.737,8.98 22.735,9.126 22.735,9.268 L22.735,16.998 C22.743,17.649 22.7,18.159 22.601,18.594 C22.199,20.363 20.26,20.701 18.842,20.948 L18.839,20.948 C18.8,20.955 18.761,20.962 18.723,20.969 C18.632,20.984 18.542,21 18.453,21.016 C16.719,21.338 14.862,21.896 12.229,22.71 C12.201,22.719 12.173,22.727 12.144,22.733 C12.097,22.743 12.048,22.748 11.998,22.749 L11.99,22.749 L11.994,22.747 C11.944,22.747 11.895,22.742 11.847,22.732 Z M10.744,7 C10.744,9.789 11.672,11.25 11.993,11.25 C12.314,11.25 13.242,9.789 13.242,7 C13.242,4.211 12.314,2.75 11.993,2.75 C11.672,2.75 10.744,4.211 10.744,7 Z M14.742,7.001 C14.742,8.305 14.546,9.614 14.161,10.655 C15.405,9.913 16.24,8.553 16.24,7.001 C16.24,5.449 15.405,4.089 14.161,3.347 C14.546,4.387 14.742,5.697 14.742,7.001 Z M7.746,7.001 C7.746,8.553 8.581,9.913 9.825,10.655 C9.44,9.615 9.244,8.305 9.244,7.001 C9.244,5.697 9.44,4.388 9.825,3.347 C8.581,4.089 7.746,5.449 7.746,7.001 Z" />
</svg>