<svg xmlns="http://www.w3.org/2000/svg" viewBox="0 0 24 24" width="24" height="24" color="#ffffff" fill="none">
    <defs />
    <path fill="#141B34" d="M3,13.25 L5.395,13.25 C5.802,13.25 6.203,13.342 6.569,13.518 L8.611,14.506 C8.772,14.584 8.95,14.625 9.132,14.625 L10.174,14.625 C11.012,14.625 11.769,15.021 12.243,15.641 L16.37,14.373 L16.371,14.372 C17.502,14.021 18.712,14.444 19.405,15.403 C20.027,16.264 19.787,17.505 18.854,18.044 L11.338,22.38 C10.683,22.758 9.906,22.852 9.182,22.637 L2.787,20.739 C2.39,20.621 2.163,20.204 2.281,19.807 C2.399,19.41 2.816,19.183 3.214,19.301 L9.609,21.199 C9.936,21.296 10.287,21.255 10.588,21.081 L18.104,16.744 C18.245,16.663 18.305,16.442 18.189,16.281 C17.862,15.829 17.313,15.65 16.816,15.805 L16.813,15.806 L12.749,17.055 C12.75,17.084 12.75,17.113 12.75,17.142 C12.75,17.533 12.484,17.853 12.134,17.95 L9.593,18.652 C8.962,18.827 8.287,18.766 7.699,18.482 L5.516,17.425 C5.143,17.245 4.987,16.796 5.167,16.424 C5.348,16.051 5.796,15.895 6.169,16.075 L8.352,17.131 C8.611,17.257 8.912,17.284 9.193,17.207 L11.127,16.672 C10.951,16.353 10.601,16.125 10.174,16.125 L9.132,16.125 C8.725,16.125 8.323,16.034 7.958,15.857 L5.916,14.869 C5.755,14.791 5.577,14.75 5.395,14.75 L3,14.75 C2.586,14.75 2.25,14.414 2.25,14 C2.25,13.586 2.586,13.25 3,13.25 Z M14,2.75 C10.548,2.75 7.75,5.548 7.75,9 C7.75,9.96 7.966,10.867 8.351,11.678 C8.529,12.052 8.37,12.5 7.995,12.677 C7.621,12.855 7.174,12.696 6.996,12.322 C6.517,11.314 6.25,10.187 6.25,9 C6.25,4.72 9.72,1.25 14,1.25 C18.28,1.25 21.75,4.72 21.75,9 C21.75,10.646 21.236,12.174 20.361,13.429 C20.124,13.769 19.656,13.852 19.316,13.615 C18.976,13.378 18.893,12.911 19.13,12.571 C19.836,11.559 20.25,10.329 20.25,9 C20.25,5.548 17.452,2.75 14,2.75 Z M14,4.25 C14.414,4.25 14.75,4.586 14.75,5 L14.75,5.335 C15.539,5.515 16.235,5.98 16.565,6.68 C16.741,7.055 16.581,7.502 16.206,7.678 C15.831,7.855 15.384,7.694 15.208,7.32 C15.09,7.071 14.668,6.75 14,6.75 C13.594,6.75 13.256,6.874 13.036,7.039 C12.816,7.204 12.75,7.375 12.75,7.5 C12.75,7.625 12.816,7.796 13.036,7.961 C13.256,8.126 13.594,8.25 14,8.25 C14.699,8.25 15.36,8.462 15.864,8.839 C16.368,9.217 16.75,9.797 16.75,10.5 C16.75,11.203 16.368,11.783 15.864,12.161 C15.546,12.399 15.164,12.572 14.75,12.666 L14.75,13 C14.75,13.414 14.414,13.75 14,13.75 C13.586,13.75 13.25,13.414 13.25,13 L13.25,12.665 C12.461,12.485 11.765,12.02 11.435,11.32 C11.259,10.945 11.419,10.498 11.794,10.322 C12.169,10.145 12.616,10.306 12.792,10.68 C12.91,10.929 13.332,11.25 14,11.25 C14.406,11.25 14.744,11.126 14.964,10.961 C15.184,10.796 15.25,10.625 15.25,10.5 C15.25,10.375 15.184,10.204 14.964,10.039 C14.744,9.874 14.406,9.75 14,9.75 C13.301,9.75 12.64,9.538 12.136,9.161 C11.632,8.783 11.25,8.203 11.25,7.5 C11.25,6.797 11.632,6.217 12.136,5.839 C12.454,5.6 12.836,5.428 13.25,5.334 L13.25,5 C13.25,4.586 13.586,4.25 14,4.25 Z" />
</svg>