<svg xmlns="http://www.w3.org/2000/svg" viewBox="0 0 24 24" width="24" height="24" color="#ffffff" fill="none">
    <defs />
    <path fill="#141B34" d="M4.604,10.555 C4.85,10.889 4.778,11.358 4.445,11.604 C3.893,12.011 3.75,12.35 3.75,12.572 C3.75,12.759 3.846,13.022 4.209,13.349 C4.572,13.676 5.139,14.004 5.903,14.295 C7.427,14.875 9.582,15.25 12,15.25 C14.418,15.25 16.574,14.875 18.097,14.295 C18.861,14.004 19.428,13.676 19.791,13.349 C20.154,13.022 20.25,12.759 20.25,12.572 C20.25,12.35 20.108,12.011 19.555,11.604 C19.222,11.358 19.151,10.889 19.396,10.555 C19.642,10.222 20.111,10.151 20.445,10.396 C21.171,10.931 21.75,11.661 21.75,12.572 C21.75,12.663 21.744,12.753 21.733,12.84 C21.744,12.892 21.75,12.945 21.75,13 C21.75,16.924 19.023,20.264 16.206,22.11 C15.503,22.57 14.692,22.75 13.917,22.75 L10.083,22.75 C9.308,22.75 8.497,22.57 7.794,22.11 C4.977,20.264 2.25,16.924 2.25,13 C2.25,12.945 2.256,12.891 2.267,12.84 C2.256,12.752 2.25,12.663 2.25,12.572 C2.25,11.661 2.829,10.931 3.555,10.396 C3.889,10.151 4.358,10.222 4.604,10.555 Z M2.634,1.346 C2.995,1.143 3.452,1.272 3.654,1.634 C4.318,2.819 5.027,3.846 5.759,4.734 C7.166,2.764 9.869,2.376 12.027,3.792 C12.659,4.207 13.128,4.785 13.517,5.379 C13.792,5.798 14.052,6.269 14.303,6.72 C14.399,6.894 14.494,7.064 14.587,7.228 C15.29,8.464 16.024,9.514 17.294,10.055 C17.519,10.151 17.683,10.351 17.734,10.59 C17.785,10.829 17.715,11.078 17.548,11.257 C15.777,13.155 13.751,13.783 11.911,13.749 C10.1,13.715 8.496,13.042 7.481,12.376 C5.441,11.037 4.436,8.455 5.055,6.218 C4.102,5.142 3.187,3.868 2.346,2.367 C2.143,2.005 2.272,1.548 2.634,1.346 Z M4.061,15.08 C4.771,17.462 6.604,19.537 8.616,20.855 C9.023,21.122 9.531,21.25 10.083,21.25 L13.917,21.25 C14.469,21.25 14.977,21.122 15.384,20.855 C17.396,19.537 19.229,17.462 19.939,15.08 C19.547,15.311 19.106,15.516 18.631,15.697 C16.897,16.357 14.553,16.75 12,16.75 C9.448,16.75 7.103,16.357 5.369,15.697 C4.894,15.516 4.453,15.31 4.061,15.08 Z M6.376,7.567 C6.373,8.902 7.062,10.307 8.304,11.122 C9.132,11.665 10.465,12.221 11.939,12.249 C13.152,12.272 14.479,11.939 15.738,10.905 C14.577,10.111 13.861,8.985 13.283,7.97 C13.17,7.771 13.064,7.581 12.962,7.396 L12.962,7.396 C12.723,6.965 12.505,6.571 12.262,6.201 C11.924,5.684 11.59,5.299 11.204,5.046 C9.536,3.951 7.635,4.407 6.8,5.89 C7.976,7.085 9.188,7.963 10.357,8.596 C10.722,8.793 10.857,9.248 10.66,9.613 C10.462,9.977 10.007,10.112 9.643,9.915 C8.558,9.327 7.453,8.558 6.376,7.567 Z" />
</svg>