<svg xmlns="http://www.w3.org/2000/svg" viewBox="0 0 24 24" width="24" height="24" color="#ffffff" fill="none">
    <defs />
    <path fill="#141B34" d="M16.052,1.75 C16.951,1.75 17.7,1.75 18.295,1.83 C18.922,1.914 19.489,2.1 19.944,2.555 C20.4,3.011 20.586,3.578 20.67,4.206 C20.75,4.8 20.75,5.548 20.75,6.445 L20.75,14.399 L21.162,15.158 C21.888,16.497 22.377,17.564 22.603,18.449 C22.835,19.358 22.807,20.149 22.413,20.866 C21.972,21.666 21.185,21.978 20.302,22.117 C19.449,22.25 18.311,22.25 16.916,22.25 L7.084,22.25 C5.689,22.25 4.551,22.25 3.698,22.117 C2.815,21.978 2.027,21.666 1.587,20.866 C1.192,20.149 1.165,19.358 1.397,18.449 C1.623,17.565 2.11,16.501 2.834,15.165 L3.25,14.356 L3.25,6.448 C3.25,5.55 3.25,4.8 3.33,4.206 C3.414,3.578 3.6,3.011 4.055,2.555 C4.511,2.1 5.078,1.914 5.706,1.83 C6.3,1.75 7.05,1.75 7.948,1.75 L16.052,1.75 Z M19.25,6.5 C19.25,5.536 19.248,4.888 19.184,4.405 C19.121,3.944 19.014,3.746 18.884,3.616 C18.754,3.486 18.556,3.379 18.095,3.317 C17.612,3.252 16.964,3.25 16,3.25 L8,3.25 C7.036,3.25 6.388,3.252 5.905,3.317 C5.444,3.379 5.246,3.486 5.116,3.616 C4.986,3.746 4.879,3.944 4.817,4.405 C4.752,4.888 4.75,5.536 4.75,6.5 L4.75,13.75 L19.25,13.75 Z M4.477,15.25 L4.157,15.873 C3.44,17.195 3.028,18.125 2.851,18.82 C2.679,19.49 2.747,19.862 2.901,20.142 C3.008,20.338 3.222,20.524 3.93,20.635 C4.654,20.748 5.674,20.75 7.155,20.75 L16.845,20.75 C18.326,20.75 19.346,20.748 20.07,20.635 C20.778,20.524 20.991,20.338 21.099,20.142 C21.253,19.862 21.32,19.49 21.149,18.82 C20.972,18.125 20.559,17.195 19.843,15.873 L19.505,15.25 Z M13.697,6.279 L11.697,11.279 C11.543,11.663 11.106,11.85 10.722,11.697 C10.337,11.543 10.15,11.106 10.304,10.722 L12.304,5.722 C12.458,5.337 12.894,5.15 13.279,5.304 C13.663,5.458 13.85,5.894 13.697,6.279 Z M15.01,7.568 C14.697,7.298 14.661,6.824 14.932,6.51 C15.202,6.197 15.676,6.161 15.99,6.432 L16.91,7.225 L16.937,7.249 C17.106,7.394 17.285,7.549 17.417,7.697 C17.565,7.864 17.75,8.13 17.75,8.5 C17.75,8.87 17.565,9.136 17.417,9.303 C17.285,9.451 17.106,9.606 16.937,9.751 L16.91,9.775 L15.99,10.568 C15.676,10.839 15.202,10.803 14.932,10.49 C14.661,10.176 14.697,9.702 15.01,9.432 L15.93,8.639 C15.991,8.586 16.044,8.541 16.091,8.5 C16.044,8.459 15.991,8.414 15.93,8.361 Z M9.068,6.51 C9.339,6.824 9.303,7.298 8.99,7.568 L8.07,8.361 C8.009,8.414 7.956,8.459 7.909,8.5 C7.956,8.541 8.009,8.586 8.07,8.639 L8.99,9.432 C9.303,9.702 9.339,10.176 9.068,10.49 C8.798,10.803 8.324,10.839 8.01,10.568 L7.09,9.775 L7.063,9.751 C6.894,9.606 6.715,9.451 6.583,9.303 C6.435,9.136 6.25,8.87 6.25,8.5 C6.25,8.13 6.435,7.864 6.583,7.697 C6.715,7.549 6.894,7.394 7.063,7.249 L7.09,7.225 L8.01,6.432 C8.324,6.161 8.798,6.197 9.068,6.51 Z" />
</svg>