<svg xmlns="http://www.w3.org/2000/svg" viewBox="0 0 24 24" width="24" height="24" color="#ffffff" fill="none">
    <defs />
    <path fill="#141B34" d="M12.583,3.469 C14.199,2.255 16.873,1.527 19.854,3.355 C21.915,4.62 23.075,7.261 22.668,10.295 C22.259,13.344 20.286,16.793 16.106,19.886 L16.002,19.963 C14.551,21.038 13.59,21.75 11.999,21.75 C10.409,21.75 9.448,21.038 7.997,19.963 L7.893,19.886 C3.713,16.793 1.74,13.344 1.331,10.295 C0.924,7.261 2.083,4.62 4.145,3.355 C7.126,1.527 9.8,2.255 11.415,3.469 C11.681,3.668 11.864,3.805 11.999,3.897 C12.135,3.805 12.318,3.668 12.583,3.469 Z M19.07,4.634 C16.688,3.172 14.681,3.769 13.484,4.668 L13.463,4.684 L13.463,4.684 C13.193,4.887 12.961,5.061 12.775,5.183 C12.678,5.246 12.571,5.31 12.46,5.361 C12.355,5.408 12.193,5.468 11.999,5.468 C11.806,5.468 11.644,5.408 11.538,5.361 C11.427,5.31 11.321,5.246 11.224,5.183 C11.038,5.061 10.806,4.887 10.536,4.684 L10.536,4.684 L10.515,4.668 C9.318,3.769 7.311,3.172 4.929,4.634 C3.471,5.528 2.473,7.527 2.817,10.096 C3.16,12.649 4.847,15.766 8.785,18.681 C10.367,19.852 10.945,20.25 11.999,20.25 C13.054,20.25 13.632,19.852 15.214,18.681 C19.152,15.766 20.839,12.649 21.181,10.096 C21.526,7.527 20.528,5.528 19.07,4.634 Z M11.25,9.001 C11.25,8.587 11.585,8.251 12,8.251 C12.414,8.251 12.75,8.587 12.75,9.001 L12.75,11.251 L15,11.251 C15.414,11.251 15.75,11.587 15.75,12.001 C15.75,12.415 15.414,12.751 15,12.751 L12.75,12.751 L12.75,15.001 C12.75,15.415 12.414,15.751 12,15.751 C11.585,15.751 11.25,15.415 11.25,15.001 L11.25,12.751 L9,12.751 C8.585,12.751 8.25,12.415 8.25,12.001 C8.25,11.587 8.585,11.251 9,11.251 L11.25,11.251 Z M11.844,3.993 C11.84,3.995 11.84,3.995 11.843,3.994 Z M12.158,3.995 L12.155,3.993 L12.156,3.994 C12.158,3.994 12.158,3.995 12.158,3.995 Z" />
</svg>