<svg xmlns="http://www.w3.org/2000/svg" viewBox="0 0 24 24" width="24" height="24" color="#ffffff" fill="none">
    <defs />
    <path fill="#141B34" d="M12.748,2.939 C12.749,2.959 12.75,2.979 12.75,3 L12.75,6.536 L17.25,8.786 L17.25,7 C17.25,6.586 17.586,6.25 18,6.25 C18.414,6.25 18.75,6.586 18.75,7 L18.75,9.536 L21.325,10.824 C21.332,10.827 21.338,10.83 21.345,10.834 L22.336,11.329 C22.706,11.514 22.856,11.965 22.671,12.335 C22.5,12.678 22.102,12.832 21.75,12.707 L21.75,18.055 C21.75,18.952 21.75,19.7 21.67,20.294 C21.586,20.922 21.4,21.489 20.944,21.944 C20.489,22.4 19.922,22.585 19.295,22.67 C18.7,22.75 17.951,22.75 17.052,22.75 L16.523,22.75 C16.515,22.75 16.508,22.75 16.5,22.75 C16.492,22.75 16.485,22.75 16.477,22.75 L12.023,22.75 C12.015,22.75 12.008,22.75 12,22.75 L6.945,22.75 C6.048,22.75 5.3,22.75 4.706,22.67 C4.078,22.586 3.511,22.4 3.055,21.944 C2.6,21.489 2.414,20.922 2.33,20.295 C2.25,19.7 2.25,18.951 2.25,18.052 L2.25,7.707 C1.887,7.836 1.48,7.667 1.318,7.31 C1.146,6.933 1.313,6.489 1.69,6.317 L12.69,1.317 C13.067,1.146 13.512,1.313 13.683,1.69 C13.854,2.067 13.688,2.511 13.311,2.683 Z M9.977,21.25 C9.985,21.25 9.992,21.25 10,21.25 L11.25,21.25 L11.25,3.619 L3.75,7.029 L3.75,18 C3.75,18.964 3.752,19.612 3.817,20.095 C3.879,20.556 3.986,20.754 4.116,20.884 C4.246,21.014 4.444,21.121 4.905,21.184 C5.388,21.248 6.036,21.25 7,21.25 Z M15.75,21.25 L15.75,18 C15.75,17.586 16.086,17.25 16.5,17.25 C16.914,17.25 17.25,17.586 17.25,18 L17.25,21.25 C18.078,21.249 18.655,21.242 19.095,21.183 C19.556,21.121 19.754,21.014 19.884,20.883 C20.014,20.753 20.121,20.556 20.184,20.094 C20.248,19.611 20.25,18.964 20.25,18 L20.25,11.963 L17.682,10.679 C17.671,10.674 17.659,10.668 17.648,10.663 L12.75,8.213 L12.75,21.25 Z M7,10.25 L8,10.25 C8.414,10.25 8.75,10.586 8.75,11 C8.75,11.414 8.414,11.75 8,11.75 L7,11.75 C6.586,11.75 6.25,11.414 6.25,11 C6.25,10.586 6.586,10.25 7,10.25 Z M7,14.25 L8,14.25 C8.414,14.25 8.75,14.586 8.75,15 C8.75,15.414 8.414,15.75 8,15.75 L7,15.75 C6.586,15.75 6.25,15.414 6.25,15 C6.25,14.586 6.586,14.25 7,14.25 Z M15.25,14 C15.25,13.586 15.586,13.25 16,13.25 L17,13.25 C17.414,13.25 17.75,13.586 17.75,14 C17.75,14.414 17.414,14.75 17,14.75 L16,14.75 C15.586,14.75 15.25,14.414 15.25,14 Z" />
</svg>