<svg xmlns="http://www.w3.org/2000/svg" viewBox="0 0 24 24" width="24" height="24" color="#ffffff" fill="none">
    <path d="M19.8711 5.35033L21.1411 13.7503V13.7403C21.5411 16.3903 21.7511 19.1103 21.7511 21.8003C21.7511 22.1303 21.5411 22.4203 21.2211 22.5203L16.2211 24.0203C16.1411 24.0403 16.0711 24.0503 16.0011 24.0503C15.9511 24.0503 15.8611 24.0403 15.8611 24.0403L2.86113 21.5403C2.48113 21.4703 2.22113 21.1303 2.25113 20.7503L3.27113 7.76033C3.30113 7.45033 3.51113 7.19033 3.81113 7.10033L6.34113 6.36033C6.37113 6.12033 6.41113 5.88033 6.45113 5.66033C7.11113 2.45033 9.16113 0.230335 11.1611 0.620335C11.8211 0.740335 12.3811 1.14033 12.8111 1.72033C12.8409 1.72033 12.871 1.71994 12.9014 1.71954C13.0242 1.71794 13.1509 1.71628 13.2711 1.74033C14.1711 1.91033 14.9111 2.63033 15.3611 3.73033L15.8011 3.60033H15.8211C15.9211 3.57033 16.0211 3.56033 16.1211 3.58033C16.1411 3.59033 16.1511 3.59033 16.1711 3.59033C16.2611 3.61033 16.3611 3.65033 16.4411 3.71033H16.4511L17.7511 4.71033H19.1311C19.5011 4.71033 19.8211 4.98033 19.8711 5.35033ZM13.6911 4.20033L13.9011 4.14033C13.8111 3.94033 13.7111 3.78033 13.6011 3.64033C13.6098 3.69267 13.6194 3.74585 13.6291 3.79963C13.6527 3.93082 13.6769 4.06558 13.6911 4.20033ZM12.0252 3.50444C11.5972 3.80507 11.1694 4.32365 10.8011 5.05033L12.2311 4.63033C12.1917 4.21613 12.123 3.84084 12.0252 3.50444ZM11.2211 2.24033C11.1011 2.16033 10.9911 2.10033 10.8611 2.08033H10.8711C9.89113 1.89033 8.44113 3.41033 7.92113 5.89033L8.97113 5.58033C9.47113 4.07033 10.2911 2.88033 11.2211 2.24033ZM15.2511 5.31033L4.71113 8.39033L3.80113 20.2003L15.2511 22.4003V5.31033ZM16.7511 22.2973L20.2411 21.2503C20.2111 18.8203 20.0111 16.3703 19.6511 13.9703L18.4811 6.21033H17.5011C17.3311 6.21033 17.1711 6.15033 17.0411 6.05033L16.7511 5.83033V22.2973ZM9.19226 8.76037C10.6423 8.11037 12.5322 8.81037 13.0822 9.04037V9.06037C13.4622 9.22037 13.6422 9.66037 13.4822 10.0403C13.3222 10.4203 12.8822 10.6003 12.5022 10.4403C11.7023 10.1103 10.5123 9.83037 9.80226 10.1503C9.52226 10.2803 9.33226 10.5003 9.21226 10.8403C8.90226 11.7403 9.84226 12.7103 10.6823 13.3703C13.0522 15.2403 12.6822 17.0303 12.0922 17.7903C11.5823 18.4603 10.8423 18.8803 9.96226 18.9803C9.80226 19.0103 9.65226 19.0103 9.49226 19.0103C8.16226 19.0103 6.90226 18.3803 6.32226 17.9103C6.00226 17.6403 5.95226 17.1703 6.21226 16.8503C6.48226 16.5303 6.95226 16.4803 7.27226 16.7403C7.72226 17.1003 8.84226 17.6003 9.79226 17.4803C10.2723 17.4203 10.6423 17.2203 10.9123 16.8603C11.1423 16.5503 11.2123 15.6703 9.76226 14.5303C7.54226 12.8003 7.46226 11.3003 7.79226 10.3403C8.04226 9.60037 8.52226 9.06037 9.19226 8.76037Z" fill="#141B34" />
</svg>