<svg xmlns="http://www.w3.org/2000/svg" viewBox="0 0 24 24" width="24" height="24" color="#ffffff" fill="none">
    <defs />
    <path fill="#141B34" d="M6.75,2 L6.75,2.75 L7.875,2.75 C8.911,2.75 9.75,3.589 9.75,4.625 L9.75,5.375 C9.75,5.797 9.611,6.187 9.375,6.5 C9.611,6.813 9.75,7.203 9.75,7.625 L9.75,8.375 C9.75,9.411 8.911,10.25 7.875,10.25 L6.75,10.25 L6.75,11 C6.75,11.414 6.414,11.75 6,11.75 C5.586,11.75 5.25,11.414 5.25,11 L5.25,10.25 L3,10.25 C2.586,10.25 2.25,9.914 2.25,9.5 C2.25,9.086 2.586,8.75 3,8.75 L3.375,8.75 L3.375,4.25 L3,4.25 C2.586,4.25 2.25,3.914 2.25,3.5 C2.25,3.086 2.586,2.75 3,2.75 L5.25,2.75 L5.25,2 C5.25,1.586 5.586,1.25 6,1.25 C6.414,1.25 6.75,1.586 6.75,2 Z M18.624,12.584 L21.624,17.084 C21.792,17.336 21.792,17.664 21.624,17.916 L18.624,22.416 C18.485,22.625 18.251,22.75 18,22.75 C17.749,22.75 17.515,22.625 17.376,22.416 L14.376,17.916 C14.208,17.664 14.208,17.336 14.376,17.084 L17.376,12.584 C17.515,12.375 17.749,12.25 18,12.25 C18.251,12.25 18.485,12.375 18.624,12.584 Z M15.722,5.847 C14.697,5.751 13.426,5.75 12,5.75 C11.586,5.75 11.25,5.414 11.25,5 C11.25,4.586 11.586,4.25 12,4.25 L12.029,4.25 C13.421,4.25 14.76,4.25 15.862,4.353 C16.419,4.405 16.941,4.486 17.397,4.616 C17.847,4.744 18.286,4.935 18.626,5.244 C19.197,5.763 19.493,6.324 19.629,7.106 C19.75,7.799 19.75,8.705 19.75,9.918 L19.75,10 C19.75,10.26 19.615,10.501 19.394,10.638 C19.173,10.775 18.897,10.787 18.665,10.671 L16.665,9.671 C16.294,9.486 16.144,9.035 16.329,8.665 C16.514,8.294 16.965,8.144 17.335,8.329 L18.245,8.784 C18.236,8.161 18.213,7.717 18.151,7.364 C18.068,6.887 17.925,6.634 17.617,6.354 C17.517,6.263 17.325,6.155 16.986,6.058 C16.654,5.964 16.232,5.894 15.722,5.847 Z M5.335,13.329 L7.335,14.329 C7.706,14.514 7.856,14.965 7.671,15.335 C7.486,15.706 7.035,15.856 6.665,15.671 L5.755,15.216 C5.764,15.839 5.787,16.283 5.849,16.636 C5.932,17.113 6.075,17.366 6.383,17.646 C6.483,17.737 6.675,17.845 7.014,17.942 C7.346,18.036 7.768,18.106 8.278,18.153 C9.303,18.249 10.574,18.25 12,18.25 C12.414,18.25 12.75,18.586 12.75,19 C12.75,19.414 12.414,19.75 12,19.75 L11.972,19.75 C10.579,19.75 9.24,19.75 8.138,19.647 C7.582,19.595 7.058,19.514 6.602,19.384 C6.153,19.256 5.714,19.065 5.374,18.756 C4.803,18.237 4.508,17.676 4.371,16.894 C4.25,16.201 4.25,15.295 4.25,14.082 L4.25,14 C4.25,13.74 4.385,13.499 4.606,13.362 C4.827,13.225 5.103,13.213 5.335,13.329 Z M18,17.824 L19.852,17.13 L18,14.352 L16.148,17.13 Z M4.875,7.25 L4.875,8.75 L7.875,8.75 C8.082,8.75 8.25,8.582 8.25,8.375 L8.25,7.625 C8.25,7.418 8.082,7.25 7.875,7.25 Z M4.875,5.75 L7.875,5.75 C8.082,5.75 8.25,5.582 8.25,5.375 L8.25,4.625 C8.25,4.418 8.082,4.25 7.875,4.25 L4.875,4.25 Z M18,20.648 L19.086,19.019 L18.263,19.327 C18.094,19.391 17.906,19.391 17.737,19.327 L16.914,19.019 Z" />
</svg>