<svg xmlns="http://www.w3.org/2000/svg" viewBox="0 0 24 24" width="24" height="24" color="#ffffff" fill="none">
    <defs />
    <path fill="#141B34" d="M10.166,3.954 C9.762,4.046 9.36,3.793 9.269,3.389 C9.177,2.985 9.43,2.583 9.834,2.492 C10.531,2.333 11.256,2.25 12,2.25 C17.385,2.25 21.75,6.615 21.75,12 C21.75,14.62 20.716,16.999 19.035,18.75 L20.5,18.75 C20.914,18.75 21.25,19.086 21.25,19.5 C21.25,19.914 20.914,20.25 20.5,20.25 L16.977,20.25 C16.562,20.25 16.227,19.914 16.227,19.5 L16.227,16 C16.227,15.586 16.562,15.25 16.977,15.25 C17.391,15.25 17.727,15.586 17.727,16 L17.727,17.939 C19.283,16.438 20.25,14.332 20.25,12 C20.25,7.444 16.556,3.75 12,3.75 C11.369,3.75 10.755,3.821 10.166,3.954 Z M3.5,3.766 L7,3.766 C7.414,3.766 7.75,4.101 7.75,4.516 L7.75,8 C7.75,8.414 7.414,8.75 7,8.75 C6.586,8.75 6.25,8.414 6.25,8 L6.25,6.084 C4.707,7.583 3.75,9.68 3.75,12 C3.75,16.556 7.444,20.25 12,20.25 C12.631,20.25 13.245,20.179 13.834,20.046 C14.238,19.954 14.64,20.207 14.731,20.611 C14.823,21.015 14.57,21.417 14.166,21.508 C13.469,21.667 12.744,21.75 12,21.75 C6.615,21.75 2.25,17.385 2.25,12 C2.25,9.388 3.278,7.015 4.95,5.266 L3.5,5.266 C3.086,5.266 2.75,4.93 2.75,4.516 C2.75,4.101 3.086,3.766 3.5,3.766 Z M12.75,8 L12.75,8.583 L13.562,8.583 C14.539,8.583 15.25,9.413 15.25,10.333 L15.25,11 C15.25,11.362 15.14,11.711 14.946,12 C15.14,12.289 15.25,12.638 15.25,13 L15.25,13.667 C15.25,14.587 14.539,15.417 13.562,15.417 L12.75,15.417 L12.75,16 C12.75,16.414 12.414,16.75 12,16.75 C11.586,16.75 11.25,16.414 11.25,16 L11.25,15.417 L9.5,15.417 C9.086,15.417 8.75,15.081 8.75,14.667 C8.75,14.252 9.086,13.917 9.5,13.917 L9.688,13.917 L9.688,10.083 L9.5,10.083 C9.086,10.083 8.75,9.748 8.75,9.333 C8.75,8.919 9.086,8.583 9.5,8.583 L11.25,8.583 L11.25,8 C11.25,7.586 11.586,7.25 12,7.25 C12.414,7.25 12.75,7.586 12.75,8 Z M11.188,11.25 L13.562,11.25 C13.621,11.25 13.75,11.184 13.75,11 L13.75,10.333 C13.75,10.149 13.621,10.083 13.562,10.083 L11.188,10.083 Z M11.188,12.75 L11.188,13.917 L13.562,13.917 C13.621,13.917 13.75,13.851 13.75,13.667 L13.75,13 C13.75,12.816 13.621,12.75 13.562,12.75 Z" />
</svg>